<svg width="240.575px" height="88.4249755859375px" xmlns="http://www.w3.org/2000/svg" viewBox="129.7125 30.78751220703125 240.575 88.4249755859375" style="background: rgba(72, 254, 254, 0);" preserveAspectRatio="xMidYMid"><defs><linearGradient id="editing-shiny-gradient" x1="0.04322727117869957" x2="0.9567727288213004" y1="0.2966316784620999" y2="0.7033683215379001" gradientUnits="objectBoundingBox"><stop offset="0.0" stop-color="#ffb200"></stop><stop offset="0.5" stop-color="#e10057"></stop><stop offset="1.0" stop-color="#5a1a80"></stop></linearGradient><linearGradient id="editing-shiny-gradient2" x1="0" x2="0" y1="0" y2="1"><stop offset="0.2" stop-color="#fff" stop-opacity="0.8"></stop><stop offset="0.8" stop-color="#fff" stop-opacity="0"></stop></linearGradient><filter id="editing-shiny2" x="-100%" y="-100%" width="300%" height="300%"><feMorphology operator="erode" radius="2"></feMorphology></filter><filter id="editing-shiny" x="-100%" y="-100%" width="300%" height="300%"><feFlood flood-color="#fff" result="flood"></feFlood><feConvolveMatrix in="SourceGraphic" result="conv" order="8,8" divisor="1" kernelMatrix="0 0 0 0 0 0 0 0 0 0 0 1 1 0 0 0 0 0 0 1 1 0 0 0 0 0 1 0 0 1 0 0 0 0 1 0 0 1 0 0 0 1 0 0 0 0 1 0 0 1 1 0 0 1 1 0 0 0 0 1 1 0 0 0 "></feConvolveMatrix><feOffset dx="0" dy="4" in="conv" result="offset"></feOffset><feComposite operator="in" in="flood" in2="offset" result="comp"></feComposite><feGaussianBlur in="offset" stdDeviation="3" result="shadow"></feGaussianBlur><feColorMatrix in="shadow" type="matrix" values="0.7 0 0 0 0  0 0.7 0 0 0  0 0 0.7 0 0  0 0 0 0.3 0" result="dark-shadow"></feColorMatrix><feOffset dx="0" dy="4" in="dark-shadow" result="offset-shadow"></feOffset><feOffset dx="0" dy="2" in="conv" result="offset-2"></feOffset><feComposite operator="out" in="offset" in2="offset-2" result="edge-diff"></feComposite><feGaussianBlur in="edge-diff" stdDeviation="1" result="edge-blur"></feGaussianBlur><feColorMatrix in="edge-blur" result="edge-shadow" type="matrix" values="0 0 0 0 0  0 0 0 0 0  0 0 0 0 0  0 0 0 0.5 0"></feColorMatrix><feComposite operator="in" in="edge-shadow" in2="offset" result="edge-shadow-in"></feComposite><feOffset dx="0" dy="1" in="edge-shadow-in" result="edge-shadow-final"></feOffset><feMerge result="out"><feMergeNode in="offset-shadow"></feMergeNode><feMergeNode in="comp"></feMergeNode><feMergeNode in="edge-shadow-final"></feMergeNode><feMergeNode in="SourceGraphic"></feMergeNode></feMerge></filter></defs><g filter="url(#editing-shiny)"><g transform="translate(169.52312707901, 96.22000122070312)"><path d="M7.26-18.45L7.26-18.45L7.30-13.33L7.13-6.23L7.13-6.23Q7.18-6.07 7.26-6.07L7.26-6.07L7.26-6.07Q7.34-6.07 7.38-6.15L7.38-6.15L7.38-6.15Q8.20-7.30 9.41-7.30L9.41-7.30L9.41-7.30Q10.62-7.30 10.62-6.81L10.62-6.81L10.62-6.81Q10.62-5.25 11.21-4.41L11.21-4.41L11.21-4.41Q11.81-3.57 12.89-3.57L12.89-3.57L12.89-3.57Q13.98-3.57 14.99-5.04L14.99-5.04L14.99-5.04Q15.99-6.52 15.99-8.98L15.99-8.98L15.99-8.98Q15.99-9.80 15.66-10.95L15.66-10.95L15.66-10.95Q15.01-13.24 13.20-14.02L13.20-14.02L13.20-14.02Q11.89-14.56 8.94-14.56L8.94-14.56L8.94-14.56Q8.61-14.56 8.61-15.01L8.61-15.01L8.61-15.01Q8.61-17.30 9.43-17.38L9.43-17.38L9.43-17.38Q10.54-17.38 11.77-17.96L11.77-17.96L11.77-17.96Q14.23-19.11 14.23-22.67L14.23-22.67L14.23-22.67Q14.23-26.53 9.80-26.53L9.80-26.53L8.53-26.45L8.53-26.45Q7.79-26.28 7.71-25.83L7.71-25.83L7.71-25.71L7.71-25.71Q7.26-24.07 7.26-18.45ZM1.23 0.57L1.23 0.57L1.31 0.12L1.31 0.12Q1.72-0.61 2.01-5.88L2.01-5.88L2.01-5.88Q2.30-11.15 2.30-15.72L2.30-15.72L2.30-15.72Q2.30-20.30 2.11-23.06L2.11-23.06L2.11-23.06Q1.93-25.83 1.11-27.06L1.11-27.06L1.11-27.06Q0.94-27.27 0.94-27.55L0.94-27.55L0.94-27.55Q0.94-27.84 1.44-28.04L1.44-28.04L1.44-28.04Q4.80-29.36 10.58-29.36L10.58-29.36L10.58-29.36Q12.01-29.36 13.69-28.97L13.69-28.97L13.69-28.97Q15.38-28.58 16.46-28.00L16.46-28.00L16.46-28.00Q17.55-27.43 18.43-26.24L18.43-26.24L18.43-26.24Q19.31-25.05 19.43-23.41L19.43-23.41L19.43-23.41Q19.43-17.47 14.51-16.56L14.51-16.56L14.51-16.56Q14.27-16.48 14.27-16.38L14.27-16.38L14.27-16.38Q14.27-16.28 14.47-16.15L14.47-16.15L14.47-16.15Q17.02-15.74 18.74-14.10L18.74-14.10L18.74-14.10Q19.60-13.33 20.30-11.69L20.30-11.69L20.30-11.69Q20.99-10.04 20.99-7.91L20.99-7.91L20.99-7.91Q20.99-5.17 19.39-2.71L19.39-2.71L19.39-2.71Q18.08-0.70 15.58 0.16L15.58 0.16L15.58 0.16Q14.19 0.66 12.46 0.66L12.46 0.66L12.46 0.66Q8.16 0.66 7.01-2.09L7.01-2.09L7.01-2.09Q6.97-2.21 6.89-2.21L6.89-2.21L6.72-2.05L6.72-2.05Q5.86 0.82 1.80 0.94L1.80 0.94L1.80 0.94Q1.23 0.94 1.23 0.57ZM26.61-15.46L26.61-15.46L26.61-15.46Q25.54-15.42 25.07-15.40L25.07-15.40L25.07-15.40Q24.60-15.38 24.60-15.62L24.60-15.62L24.60-15.62Q24.60-15.87 24.85-16.11L24.85-16.11L24.85-16.11Q27.47-18.53 33.70-18.53L33.70-18.53L33.70-18.53Q35.83-18.53 37.06-18.16L37.06-18.16L37.47-18.04L37.47-18.04Q37.97-17.84 37.97-17.59L37.97-17.59L37.97-17.59Q37.97-17.38 37.68-17.26L37.68-17.26L37.68-17.26Q36.57-16.93 35.55-16.22L35.55-16.22L35.55-16.22Q34.52-15.50 34.52-15.21L34.52-15.21L34.77-14.92L34.77-14.92Q36.08-14.19 36.80-12.59L36.80-12.59L36.80-12.59Q37.52-10.99 37.60-9.76L37.60-9.76L37.68-8.49L37.68-8.49Q37.68-4.43 35.42-1.80L35.42-1.80L35.42-1.80Q33.17 0.82 29.27 0.82L29.27 0.82L29.27 0.82Q27.31 0.82 25.87 0.12L25.87 0.12L25.87 0.12Q24.44-0.57 23.76-1.46L23.76-1.46L23.76-1.46Q23.08-2.34 22.67-3.44L22.67-3.44L22.67-3.44Q22.18-4.96 22.18-6.58L22.18-6.58L22.18-6.58Q22.18-8.20 22.73-9.84L22.73-9.84L22.73-9.84Q23.29-11.48 24.01-12.26L24.01-12.26L24.01-12.26Q24.72-13.04 25.63-13.53L25.63-13.53L25.63-13.53Q26.77-14.15 27.47-14.15L27.47-14.15L27.47-14.15Q28.17-14.15 28.17-13.86L28.17-13.86L27.92-13.45L27.92-13.45Q27.02-12.38 26.63-10.66L26.63-10.66L26.63-10.66Q26.24-8.94 26.24-7.61L26.24-7.61L26.24-7.61Q26.24-6.27 26.57-4.96L26.57-4.96L26.57-4.96Q26.90-3.65 27.31-3.01L27.31-3.01L27.31-3.01Q27.72-2.38 28.25-2.05L28.25-2.05L28.25-2.05Q29.03-1.56 29.89-1.56L29.89-1.56L29.89-1.56Q30.75-1.56 31.57-2.23L31.57-2.23L31.57-2.23Q32.39-2.91 32.76-4.02L32.76-4.02L32.76-4.02Q33.50-6.07 33.50-8.24L33.50-8.24L33.50-8.24Q33.50-11.69 31.75-13.57L31.75-13.57L31.75-13.57Q30.01-15.46 26.61-15.46ZM39.69 0.29L39.69 0.29L39.69 0.29Q40.43-4.14 40.43-10.33L40.43-10.33L40.43-10.33Q40.43-16.52 40.06-18.37L40.06-18.37L40.06-18.37Q40.06-18.90 41.29-18.90L41.29-18.90L41.29-18.90Q43.17-18.90 43.79-17.47L43.79-17.47L43.79-17.47Q43.83-17.34 43.99-17.34L43.99-17.34L43.99-17.34Q44.16-17.34 44.24-17.43L44.24-17.43L44.24-17.43Q45.51-18.74 48.18-18.74L48.18-18.74L48.18-18.74Q50.84-18.74 52.40-17.38L52.40-17.38L52.40-17.38Q53.96-16.03 53.96-13.45L53.96-13.45L53.96-13.45Q53.96-11.89 53.69-9.02L53.69-9.02L53.69-9.02Q53.42-6.15 53.42-4.76L53.42-4.76L53.42-4.76Q53.42-1.44 54.53 0.04L54.53 0.04L54.53 0.04Q54.69 0.25 54.69 0.45L54.69 0.45L54.69 0.45Q54.69 0.98 53.55 0.98L53.55 0.98L53.55 0.98Q48.46 0.98 48.46-3.53L48.46-3.53L48.46-3.53Q48.46-5.25 49.24-8.32L49.24-8.32L49.24-8.32Q50.02-11.40 50.02-13.00L50.02-13.00L50.02-13.00Q50.02-16.28 47.31-16.28L47.31-16.28L47.31-16.28Q46.00-16.28 45.33-15.50L45.33-15.50L45.33-15.50Q44.65-14.72 44.57-13.71L44.57-13.71L44.57-13.71Q44.49-12.71 44.49-9.92L44.49-9.92L44.49-9.92Q44.49-5.66 44.77-2.50L44.77-2.50L44.85-1.60L44.85-1.60Q44.85-0.45 43.36 0.18L43.36 0.18L43.36 0.18Q41.86 0.82 40.77 0.82L40.77 0.82L40.77 0.82Q39.69 0.82 39.69 0.29ZM74.09-23.49L74.09-23.49L74.09-23.49Q70.85-19.43 69.41-15.38L69.41-15.38L69.45-15.38L69.45-15.38Q75.15-15.38 75.99-15.35L75.99-15.35L75.99-15.35Q76.83-15.33 76.92-15.42L76.92-15.42L76.92-15.42Q77.00-15.50 77.04-15.62L77.04-15.62L77.04-15.62Q76.34-20.66 75.93-22.49L75.93-22.49L75.93-22.49Q75.52-24.31 75.11-24.31L75.11-24.31L75.11-24.31Q74.70-24.31 74.09-23.49ZM70.44-4.18L70.44-4.18L71.34-4.35L71.34-4.35Q71.75-4.35 71.75-3.90L71.75-3.90L71.75-3.90Q71.75-2.46 71.18-1.48L71.18-1.48L71.18-1.48Q70.60-0.49 69.74-0.08L69.74-0.08L69.74-0.08Q68.35 0.61 67.36 0.61L67.36 0.61L67.36 0.61Q65.48 0.61 64.53-0.80L64.53-0.80L64.53-0.80Q63.59-2.21 63.59-5.06L63.59-5.06L63.59-5.06Q63.59-7.91 65.15-12.46L65.15-12.46L62.77-12.46L62.77-12.46Q62.32-12.46 62.32-12.92L62.32-12.92L62.32-12.92Q62.32-13.37 63.02-14.37L63.02-14.37L63.02-14.37Q63.71-15.38 64.49-15.38L64.49-15.38L66.34-15.38L66.34-15.38Q69.25-21.85 73.19-26.57L73.19-26.57L73.19-26.57Q74.21-27.80 75.71-28.86L75.71-28.86L75.71-28.86Q77.20-29.93 78.02-29.93L78.02-29.93L78.02-29.93Q78.84-29.93 79.25-29.19L79.25-29.19L79.25-29.19Q80.32-27.47 81.75-16.61L81.75-16.61L81.75-16.61Q82.25-11.93 83.46-6.95L83.46-6.95L83.46-6.95Q84.67-1.97 85.69-1.15L85.69-1.15L85.69-1.15Q85.94-0.98 85.94-0.74L85.94-0.74L85.94-0.74Q85.94-0.12 84.19 0.41L84.19 0.41L84.19 0.41Q82.45 0.94 81.53 0.94L81.53 0.94L81.53 0.94Q80.61 0.94 80.11 0.72L80.11 0.72L80.11 0.72Q79.62 0.49 79.50 0.25L79.50 0.25L79.50 0.25Q78.76-1.35 78.02-7.38L78.02-7.38L77.78-9.31L77.78-9.31Q77.61-11.23 77.45-12.22L77.45-12.22L77.16-12.42L68.59-12.46L68.59-12.46Q68.10-10.37 68.10-8.81L68.10-8.81L68.10-8.81Q68.10-7.26 68.20-6.54L68.20-6.54L68.20-6.54Q68.31-5.82 68.88-5.00L68.88-5.00L68.88-5.00Q69.45-4.18 70.44-4.18ZM87.33-6.27L87.33-6.27L87.33-6.27Q87.41-10.41 87.41-13.08L87.41-13.08L87.41-13.08Q87.41-15.74 87.04-18.16L87.04-18.16L87.04-18.16Q87.04-18.57 87.86-18.57L87.86-18.57L87.86-18.57Q88.68-18.57 89.28-18.37L89.28-18.37L89.28-18.37Q89.87-18.16 90.12-17.92L90.12-17.92L90.12-17.92Q90.77-17.26 90.88-17.26L90.88-17.26L90.88-17.26Q90.98-17.26 91.51-17.63L91.51-17.63L91.51-17.63Q93.11-18.66 95.06-18.66L95.06-18.66L95.06-18.66Q97.01-18.66 98.46-17.67L98.46-17.67L98.46-17.67Q99.92-16.69 100.53-15.09L100.53-15.09L100.53-15.09Q101.64-12.34 101.64-9.27L101.64-9.27L101.64-9.27Q101.64-6.23 100.53-3.20L100.53-3.20L100.53-3.20Q99.92-1.56 98.73-0.51L98.73-0.51L98.73-0.51Q97.54 0.53 95.94 0.53L95.94 0.53L95.94 0.53Q92.78 0.53 92.78-3.12L92.78-3.12L92.78-3.12Q92.78-4.10 93.19-4.10L93.19-4.10L93.19-4.10Q93.28-4.10 93.66-3.92L93.66-3.92L93.66-3.92Q94.05-3.73 94.42-3.73L94.42-3.73L94.42-3.73Q97.33-3.73 97.33-9.90L97.33-9.90L97.33-9.90Q97.33-16.07 94.22-16.07L94.22-16.07L94.22-16.07Q93.36-16.07 92.76-15.68L92.76-15.68L92.76-15.68Q92.17-15.29 92.00-14.92L92.00-14.92L91.84-14.51L91.84-14.51Q91.27-10.82 91.27-0.29L91.27-0.29L91.27-0.29Q91.27 4.47 91.45 6.54L91.45 6.54L91.45 6.54Q91.64 8.61 91.64 9.02L91.64 9.02L91.64 9.02Q91.64 9.43 91.39 9.76L91.39 9.76L91.39 9.76Q90.57 10.82 89.18 11.66L89.18 11.66L89.18 11.66Q87.78 12.51 86.72 12.51L86.72 12.51L86.72 12.51Q86.31 12.51 86.31 11.97L86.31 11.97L86.31 11.97Q86.96 7.83 87.33-6.27ZM103.65-6.27L103.65-6.27L103.65-6.27Q103.73-10.41 103.73-13.08L103.73-13.08L103.73-13.08Q103.73-15.74 103.36-18.16L103.36-18.16L103.36-18.16Q103.36-18.57 104.18-18.57L104.18-18.57L104.18-18.57Q105.00-18.57 105.60-18.37L105.60-18.37L105.60-18.37Q106.19-18.16 106.44-17.92L106.44-17.92L106.44-17.92Q107.09-17.26 107.19-17.26L107.19-17.26L107.19-17.26Q107.30-17.26 107.83-17.63L107.83-17.63L107.83-17.63Q109.43-18.66 111.38-18.66L111.38-18.66L111.38-18.66Q113.32-18.66 114.78-17.67L114.78-17.67L114.78-17.67Q116.24-16.69 116.85-15.09L116.85-15.09L116.85-15.09Q117.96-12.34 117.96-9.27L117.96-9.27L117.96-9.27Q117.96-6.23 116.85-3.20L116.85-3.20L116.85-3.20Q116.24-1.56 115.05-0.51L115.05-0.51L115.05-0.51Q113.86 0.53 112.26 0.53L112.26 0.53L112.26 0.53Q109.10 0.53 109.10-3.12L109.10-3.12L109.10-3.12Q109.10-4.10 109.51-4.10L109.51-4.10L109.51-4.10Q109.59-4.10 109.98-3.92L109.98-3.92L109.98-3.92Q110.37-3.73 110.74-3.73L110.74-3.73L110.74-3.73Q113.65-3.73 113.65-9.90L113.65-9.90L113.65-9.90Q113.65-16.07 110.54-16.07L110.54-16.07L110.54-16.07Q109.68-16.07 109.08-15.68L109.08-15.68L109.08-15.68Q108.49-15.29 108.32-14.92L108.32-14.92L108.16-14.51L108.16-14.51Q107.58-10.82 107.58-0.29L107.58-0.29L107.58-0.29Q107.58 4.47 107.77 6.54L107.77 6.54L107.77 6.54Q107.95 8.61 107.95 9.02L107.95 9.02L107.95 9.02Q107.95 9.43 107.71 9.76L107.71 9.76L107.71 9.76Q106.89 10.82 105.49 11.66L105.49 11.66L105.49 11.66Q104.10 12.51 103.03 12.51L103.03 12.51L103.03 12.51Q102.62 12.51 102.62 11.97L102.62 11.97L102.62 11.97Q103.28 7.83 103.65-6.27ZM123.86-10.41L123.86-10.41L123.90-9.39L123.90-9.39Q123.90-9.14 124.23-9.14L124.23-9.14L124.23-9.14Q125.54-9.27 126.53-9.82L126.53-9.82L126.53-9.82Q127.51-10.37 128.00-11.07L128.00-11.07L128.00-11.07Q128.99-12.59 129.07-13.69L129.07-13.69L129.11-14.19L129.11-14.19Q129.11-16.40 127.35-16.40L127.35-16.40L127.35-16.40Q126.03-16.40 125.21-15.25L125.21-15.25L125.21-15.25Q123.86-13.45 123.86-10.41ZM132.80-4.96L132.80-4.96L132.80-4.96Q132.80-3.40 132.16-2.23L132.16-2.23L132.16-2.23Q131.53-1.07 130.73-0.51L130.73-0.51L130.73-0.51Q129.93 0.04 128.86 0.37L128.86 0.37L128.86 0.37Q127.51 0.78 126.28 0.78L126.28 0.78L126.28 0.78Q122.84 0.78 121.20-1.80L121.20-1.80L121.20-1.80Q119.56-4.39 119.56-8.38L119.56-8.38L119.56-8.38Q119.56-12.38 121.59-15.50L121.59-15.50L121.59-15.50Q123.62-18.61 127.67-18.61L127.67-18.61L127.67-18.61Q131.36-18.61 132.68-16.03L132.68-16.03L132.68-16.03Q133.21-15.05 133.21-14.17L133.21-14.17L133.21-14.17Q133.21-13.28 133.13-12.77L133.13-12.77L133.13-12.77Q133.05-12.26 132.55-11.23L132.55-11.23L132.55-11.23Q132.06-10.21 131.24-9.39L131.24-9.39L131.24-9.39Q130.42-8.57 128.66-7.83L128.66-7.83L128.66-7.83Q126.90-7.09 124.52-6.85L124.52-6.85L124.52-6.85Q124.19-6.85 124.19-6.56L124.19-6.56L124.19-6.56Q124.19-6.19 124.46-5.47L124.46-5.47L124.46-5.47Q124.72-4.76 125.05-4.26L125.05-4.26L125.05-4.26Q125.95-3.12 127.72-3.12L127.72-3.12L127.72-3.12Q129.48-3.12 130.71-4.26L130.71-4.26L130.71-4.26Q131.36-4.88 131.77-5.78L131.77-5.78L131.77-5.78Q131.94-6.11 132.20-6.11L132.20-6.11L132.20-6.11Q132.47-6.11 132.64-5.66L132.64-5.66L132.64-5.66Q132.80-5.21 132.80-4.96ZM134.44-15.99L134.44-15.99L134.56-17.63L134.56-17.63Q134.60-18.00 135.14-18.00L135.14-18.00L136.57-18.00L136.41-21.28L136.41-21.44L136.41-21.44Q136.41-22.39 137.84-23.25L137.84-23.25L137.84-23.25Q139.28-24.11 140.47-24.11L140.47-24.11L140.47-24.11Q140.84-24.11 140.84-23.78L140.84-23.78L140.84-23.74L140.84-23.74Q140.67-22.63 140.51-18.04L140.51-18.04L140.51-18.04Q142.31-18.04 142.80-18.12L142.80-18.12L142.80-18.12Q143.30-18.20 143.34-18.20L143.34-18.20L143.34-18.20Q143.62-18.20 143.62-17.71L143.62-17.71L143.62-17.71Q143.62-17.22 143.17-16.46L143.17-16.46L143.17-16.46Q142.72-15.70 142.19-15.66L142.19-15.66L140.47-15.66L140.47-15.66Q140.43-14.27 140.43-10.97L140.43-10.97L140.43-10.97Q140.43-7.67 140.49-5.54L140.49-5.54L140.49-5.54Q140.55-3.40 140.63-2.32L140.63-2.32L140.63-2.32Q140.71-1.23 140.81-0.57L140.81-0.57L140.81-0.57Q140.92 0.08 140.98 0.37L140.98 0.37L140.98 0.37Q141.04 0.66 141.04 0.74L141.04 0.74L141.04 0.74Q141.04 1.15 140.51 1.19L140.51 1.19L140.51 1.19Q138.91 1.19 137.33 0.74L137.33 0.74L137.33 0.74Q135.75 0.29 135.75-0.82L135.75-0.82L135.75-0.82Q136.61-7.71 136.61-15.62L136.61-15.62L136.61-15.62Q135.51-15.62 134.93-15.54L134.93-15.54L134.89-15.54L134.89-15.54Q134.52-15.54 134.44-15.99ZM148.46-21.94L148.46-21.94L147.48-21.98L147.48-21.98Q146.37-21.98 146.04-21.44L146.04-21.44L146.04-21.44Q145.96-21.32 145.84-21.32L145.84-21.32L145.84-21.32Q145.30-21.32 145.30-23.14L145.30-23.14L145.30-23.14Q145.30-24.97 145.86-25.46L145.86-25.46L145.86-25.46Q146.41-25.95 147.78-25.95L147.78-25.95L147.78-25.95Q149.16-25.95 149.65-25.48L149.65-25.48L149.65-25.48Q150.14-25.01 150.14-23.90L150.14-23.90L150.14-23.90Q150.14-22.80 149.77-22.37L149.77-22.37L149.77-22.37Q149.40-21.94 148.46-21.94ZM145.18-1.23L145.18-1.23L145.63-10.78L145.63-10.78Q145.63-14.19 144.85-15.42L144.85-15.42L144.85-15.42Q144.61-15.83 144.28-16.03L144.28-16.03L144.28-16.03Q144.03-16.11 144.03-16.36L144.03-16.36L144.03-16.36Q144.03-17.10 146.12-17.79L146.12-17.79L146.12-17.79Q148.22-18.49 149.18-18.49L149.18-18.49L149.18-18.49Q150.14-18.49 150.18-18.00L150.18-18.00L150.18-18.00Q150.18-17.18 149.96-13.35L149.96-13.35L149.96-13.35Q149.73-9.51 149.73-5.29L149.73-5.29L149.73-5.29Q149.73-1.07 150.22-0.04L150.22-0.04L150.22-0.04Q150.35 0.16 150.35 0.37L150.35 0.37L150.35 0.37Q150.35 0.90 148.79 0.90L148.79 0.90L148.79 0.90Q147.23 0.90 145.59 0.08L145.59 0.08L145.59 0.08Q145.18-0.12 145.18-1.23ZM152.23-15.99L152.23-15.99L152.36-17.63L152.36-17.63Q152.40-18.00 152.93-18.00L152.93-18.00L154.37-18.00L154.20-21.28L154.20-21.44L154.20-21.44Q154.20-22.39 155.64-23.25L155.64-23.25L155.64-23.25Q157.07-24.11 158.26-24.11L158.26-24.11L158.26-24.11Q158.63-24.11 158.63-23.78L158.63-23.78L158.63-23.74L158.63-23.74Q158.47-22.63 158.30-18.04L158.30-18.04L158.30-18.04Q160.11-18.04 160.60-18.12L160.60-18.12L160.60-18.12Q161.09-18.20 161.13-18.20L161.13-18.20L161.13-18.20Q161.42-18.20 161.42-17.71L161.42-17.71L161.42-17.71Q161.42-17.22 160.97-16.46L160.97-16.46L160.97-16.46Q160.52-15.70 159.98-15.66L159.98-15.66L158.26-15.66L158.26-15.66Q158.22-14.27 158.22-10.97L158.22-10.97L158.22-10.97Q158.22-7.67 158.28-5.54L158.28-5.54L158.28-5.54Q158.34-3.40 158.42-2.32L158.42-2.32L158.42-2.32Q158.51-1.23 158.61-0.57L158.61-0.57L158.61-0.57Q158.71 0.08 158.77 0.37L158.77 0.37L158.77 0.37Q158.83 0.66 158.83 0.74L158.83 0.74L158.83 0.74Q158.83 1.15 158.30 1.19L158.30 1.19L158.30 1.19Q156.70 1.19 155.12 0.74L155.12 0.74L155.12 0.74Q153.55 0.29 153.55-0.82L153.55-0.82L153.55-0.82Q154.41-7.71 154.41-15.62L154.41-15.62L154.41-15.62Q153.30-15.62 152.73-15.54L152.73-15.54L152.68-15.54L152.68-15.54Q152.32-15.54 152.23-15.99Z" fill="url(#editing-shiny-gradient)"></path></g></g><g filter="url(#editing-shiny2)"><g transform="translate(169.73406457901, 96.22000122070312)"><path d="M7.26-18.45L7.26-18.45L7.30-13.33L7.13-6.23L7.13-6.23Q7.18-6.07 7.26-6.07L7.26-6.07L7.26-6.07Q7.34-6.07 7.38-6.15L7.38-6.15L7.38-6.15Q8.20-7.30 9.41-7.30L9.41-7.30L9.41-7.30Q10.62-7.30 10.62-6.81L10.62-6.81L10.62-6.81Q10.62-5.25 11.21-4.41L11.21-4.41L11.21-4.41Q11.81-3.57 12.89-3.57L12.89-3.57L12.89-3.57Q13.98-3.57 14.99-5.04L14.99-5.04L14.99-5.04Q15.99-6.52 15.99-8.98L15.99-8.98L15.99-8.98Q15.99-9.80 15.66-10.95L15.66-10.95L15.66-10.95Q15.01-13.24 13.20-14.02L13.20-14.02L13.20-14.02Q11.89-14.56 8.94-14.56L8.94-14.56L8.94-14.56Q8.61-14.56 8.61-15.01L8.61-15.01L8.61-15.01Q8.61-17.30 9.43-17.38L9.43-17.38L9.43-17.38Q10.54-17.38 11.77-17.96L11.77-17.96L11.77-17.96Q14.23-19.11 14.23-22.67L14.23-22.67L14.23-22.67Q14.23-26.53 9.80-26.53L9.80-26.53L8.53-26.45L8.53-26.45Q7.79-26.28 7.71-25.83L7.71-25.83L7.71-25.71L7.71-25.71Q7.26-24.07 7.26-18.45ZM1.23 0.57L1.23 0.57L1.31 0.12L1.31 0.12Q1.72-0.61 2.01-5.88L2.01-5.88L2.01-5.88Q2.30-11.15 2.30-15.72L2.30-15.72L2.30-15.72Q2.30-20.30 2.11-23.06L2.11-23.06L2.11-23.06Q1.93-25.83 1.11-27.06L1.11-27.06L1.11-27.06Q0.94-27.27 0.94-27.55L0.94-27.55L0.94-27.55Q0.94-27.84 1.44-28.04L1.44-28.04L1.44-28.04Q4.80-29.36 10.58-29.36L10.58-29.36L10.58-29.36Q12.01-29.36 13.69-28.97L13.69-28.97L13.69-28.97Q15.38-28.58 16.46-28.00L16.46-28.00L16.46-28.00Q17.55-27.43 18.43-26.24L18.43-26.24L18.43-26.24Q19.31-25.05 19.43-23.41L19.43-23.41L19.43-23.41Q19.43-17.47 14.51-16.56L14.51-16.56L14.51-16.56Q14.27-16.48 14.27-16.38L14.27-16.38L14.27-16.38Q14.27-16.28 14.47-16.15L14.47-16.15L14.47-16.15Q17.02-15.74 18.74-14.10L18.74-14.10L18.74-14.10Q19.60-13.33 20.30-11.69L20.30-11.69L20.30-11.69Q20.99-10.04 20.99-7.91L20.99-7.91L20.99-7.91Q20.99-5.17 19.39-2.71L19.39-2.71L19.39-2.71Q18.08-0.70 15.58 0.16L15.58 0.16L15.58 0.16Q14.19 0.66 12.46 0.66L12.46 0.66L12.46 0.66Q8.16 0.66 7.01-2.09L7.01-2.09L7.01-2.09Q6.97-2.21 6.89-2.21L6.89-2.21L6.72-2.05L6.72-2.05Q5.86 0.82 1.80 0.94L1.80 0.94L1.80 0.94Q1.23 0.94 1.23 0.57ZM26.61-15.46L26.61-15.46L26.61-15.46Q25.54-15.42 25.07-15.40L25.07-15.40L25.07-15.40Q24.60-15.38 24.60-15.62L24.60-15.62L24.60-15.62Q24.60-15.87 24.85-16.11L24.85-16.11L24.85-16.11Q27.47-18.53 33.70-18.53L33.70-18.53L33.70-18.53Q35.83-18.53 37.06-18.16L37.06-18.16L37.47-18.04L37.47-18.04Q37.97-17.84 37.97-17.59L37.97-17.59L37.97-17.59Q37.97-17.38 37.68-17.26L37.68-17.26L37.68-17.26Q36.57-16.93 35.55-16.22L35.55-16.22L35.55-16.22Q34.52-15.50 34.52-15.21L34.52-15.21L34.77-14.92L34.77-14.92Q36.08-14.19 36.80-12.59L36.80-12.59L36.80-12.59Q37.52-10.99 37.60-9.76L37.60-9.76L37.68-8.49L37.68-8.49Q37.68-4.43 35.42-1.80L35.42-1.80L35.42-1.80Q33.17 0.82 29.27 0.82L29.27 0.82L29.27 0.82Q27.31 0.82 25.87 0.12L25.87 0.12L25.87 0.12Q24.44-0.57 23.76-1.46L23.76-1.46L23.76-1.46Q23.08-2.34 22.67-3.44L22.67-3.44L22.67-3.44Q22.18-4.96 22.18-6.58L22.18-6.58L22.18-6.58Q22.18-8.20 22.73-9.84L22.73-9.84L22.73-9.84Q23.29-11.48 24.01-12.26L24.01-12.26L24.01-12.26Q24.72-13.04 25.63-13.53L25.63-13.53L25.63-13.53Q26.77-14.15 27.47-14.15L27.47-14.15L27.47-14.15Q28.17-14.15 28.17-13.86L28.17-13.86L27.92-13.45L27.92-13.45Q27.02-12.38 26.63-10.66L26.63-10.66L26.63-10.66Q26.24-8.94 26.24-7.61L26.24-7.61L26.24-7.61Q26.24-6.27 26.57-4.96L26.57-4.96L26.57-4.96Q26.90-3.65 27.31-3.01L27.31-3.01L27.31-3.01Q27.72-2.38 28.25-2.05L28.25-2.05L28.25-2.05Q29.03-1.56 29.89-1.56L29.89-1.56L29.89-1.56Q30.75-1.56 31.57-2.23L31.57-2.23L31.57-2.23Q32.39-2.91 32.76-4.02L32.76-4.02L32.76-4.02Q33.50-6.07 33.50-8.24L33.50-8.24L33.50-8.24Q33.50-11.69 31.75-13.57L31.75-13.57L31.75-13.57Q30.01-15.46 26.61-15.46ZM39.69 0.29L39.69 0.29L39.69 0.29Q40.43-4.14 40.43-10.33L40.43-10.33L40.43-10.33Q40.43-16.52 40.06-18.37L40.06-18.37L40.06-18.37Q40.06-18.90 41.29-18.90L41.29-18.90L41.29-18.90Q43.17-18.90 43.79-17.47L43.79-17.47L43.79-17.47Q43.83-17.34 43.99-17.34L43.99-17.34L43.99-17.34Q44.16-17.34 44.24-17.43L44.24-17.43L44.24-17.43Q45.51-18.74 48.18-18.74L48.18-18.74L48.18-18.74Q50.84-18.74 52.40-17.38L52.40-17.38L52.40-17.38Q53.96-16.03 53.96-13.45L53.96-13.45L53.96-13.45Q53.96-11.89 53.69-9.02L53.69-9.02L53.69-9.02Q53.42-6.15 53.42-4.76L53.42-4.76L53.42-4.76Q53.42-1.44 54.53 0.04L54.53 0.04L54.53 0.04Q54.69 0.25 54.69 0.45L54.69 0.45L54.69 0.45Q54.69 0.98 53.55 0.98L53.55 0.98L53.55 0.98Q48.46 0.98 48.46-3.53L48.46-3.53L48.46-3.53Q48.46-5.25 49.24-8.32L49.24-8.32L49.24-8.32Q50.02-11.40 50.02-13.00L50.02-13.00L50.02-13.00Q50.02-16.28 47.31-16.28L47.31-16.28L47.31-16.28Q46.00-16.28 45.33-15.50L45.33-15.50L45.33-15.50Q44.65-14.72 44.57-13.71L44.57-13.71L44.57-13.71Q44.49-12.71 44.49-9.92L44.49-9.92L44.49-9.92Q44.49-5.66 44.77-2.50L44.77-2.50L44.85-1.60L44.85-1.60Q44.85-0.45 43.36 0.18L43.36 0.18L43.36 0.18Q41.86 0.82 40.77 0.82L40.77 0.82L40.77 0.82Q39.69 0.82 39.69 0.29ZM74.09-23.49L74.09-23.49L74.09-23.49Q70.85-19.43 69.41-15.38L69.41-15.38L69.45-15.38L69.45-15.38Q75.15-15.38 75.99-15.35L75.99-15.35L75.99-15.35Q76.83-15.33 76.92-15.42L76.92-15.42L76.92-15.42Q77.00-15.50 77.04-15.62L77.04-15.62L77.04-15.62Q76.34-20.66 75.93-22.49L75.93-22.49L75.93-22.49Q75.52-24.31 75.11-24.31L75.11-24.31L75.11-24.31Q74.70-24.31 74.09-23.49ZM70.44-4.18L70.44-4.18L71.34-4.35L71.34-4.35Q71.75-4.35 71.75-3.90L71.75-3.90L71.75-3.90Q71.75-2.46 71.18-1.48L71.18-1.48L71.18-1.48Q70.60-0.49 69.74-0.08L69.74-0.08L69.74-0.08Q68.35 0.61 67.36 0.61L67.36 0.61L67.36 0.61Q65.48 0.61 64.53-0.80L64.53-0.80L64.53-0.80Q63.59-2.21 63.59-5.06L63.59-5.06L63.59-5.06Q63.59-7.91 65.15-12.46L65.15-12.46L62.77-12.46L62.77-12.46Q62.32-12.46 62.32-12.92L62.32-12.92L62.32-12.92Q62.32-13.37 63.02-14.37L63.02-14.37L63.02-14.37Q63.71-15.38 64.49-15.38L64.49-15.38L66.34-15.38L66.34-15.38Q69.25-21.85 73.19-26.57L73.19-26.57L73.19-26.57Q74.21-27.80 75.71-28.86L75.71-28.86L75.71-28.86Q77.20-29.93 78.02-29.93L78.02-29.93L78.02-29.93Q78.84-29.93 79.25-29.19L79.25-29.19L79.25-29.19Q80.32-27.47 81.75-16.61L81.75-16.61L81.75-16.61Q82.25-11.93 83.46-6.95L83.46-6.95L83.46-6.95Q84.67-1.97 85.69-1.15L85.69-1.15L85.69-1.15Q85.94-0.98 85.94-0.74L85.94-0.74L85.94-0.74Q85.94-0.12 84.19 0.41L84.19 0.41L84.19 0.41Q82.45 0.94 81.53 0.94L81.53 0.94L81.53 0.94Q80.61 0.94 80.11 0.72L80.11 0.72L80.11 0.72Q79.62 0.49 79.50 0.25L79.50 0.25L79.50 0.25Q78.76-1.35 78.02-7.38L78.02-7.38L77.78-9.31L77.78-9.31Q77.61-11.23 77.45-12.22L77.45-12.22L77.16-12.42L68.59-12.46L68.59-12.46Q68.10-10.37 68.10-8.81L68.10-8.81L68.10-8.81Q68.10-7.26 68.20-6.54L68.20-6.54L68.20-6.54Q68.31-5.82 68.88-5.00L68.88-5.00L68.88-5.00Q69.45-4.18 70.44-4.18ZM87.33-6.27L87.33-6.27L87.33-6.27Q87.41-10.41 87.41-13.08L87.41-13.08L87.41-13.08Q87.41-15.74 87.04-18.16L87.04-18.16L87.04-18.16Q87.04-18.57 87.86-18.57L87.86-18.57L87.86-18.57Q88.68-18.57 89.28-18.37L89.28-18.37L89.28-18.37Q89.87-18.16 90.12-17.92L90.12-17.92L90.12-17.92Q90.77-17.26 90.88-17.26L90.88-17.26L90.88-17.26Q90.98-17.26 91.51-17.63L91.51-17.63L91.51-17.63Q93.11-18.66 95.06-18.66L95.06-18.66L95.06-18.66Q97.01-18.66 98.46-17.67L98.46-17.67L98.46-17.67Q99.92-16.69 100.53-15.09L100.53-15.09L100.53-15.09Q101.64-12.34 101.64-9.27L101.64-9.27L101.64-9.27Q101.64-6.23 100.53-3.20L100.53-3.20L100.53-3.20Q99.92-1.56 98.73-0.51L98.73-0.51L98.73-0.51Q97.54 0.53 95.94 0.53L95.94 0.53L95.94 0.53Q92.78 0.53 92.78-3.12L92.78-3.12L92.78-3.12Q92.78-4.10 93.19-4.10L93.19-4.10L93.19-4.10Q93.28-4.10 93.66-3.92L93.66-3.92L93.66-3.92Q94.05-3.73 94.42-3.73L94.42-3.73L94.42-3.73Q97.33-3.73 97.33-9.90L97.33-9.90L97.33-9.90Q97.33-16.07 94.22-16.07L94.22-16.07L94.22-16.07Q93.36-16.07 92.76-15.68L92.76-15.68L92.76-15.68Q92.17-15.29 92.00-14.92L92.00-14.92L91.84-14.51L91.84-14.51Q91.27-10.82 91.27-0.29L91.27-0.29L91.27-0.29Q91.27 4.47 91.45 6.54L91.45 6.54L91.45 6.54Q91.64 8.61 91.64 9.02L91.64 9.02L91.64 9.02Q91.64 9.43 91.39 9.76L91.39 9.76L91.39 9.76Q90.57 10.82 89.18 11.66L89.18 11.66L89.18 11.66Q87.78 12.51 86.72 12.51L86.72 12.51L86.72 12.51Q86.31 12.51 86.31 11.97L86.31 11.97L86.31 11.97Q86.96 7.83 87.33-6.27ZM103.65-6.27L103.65-6.27L103.65-6.27Q103.73-10.41 103.73-13.08L103.73-13.08L103.73-13.08Q103.73-15.74 103.36-18.16L103.36-18.16L103.36-18.16Q103.36-18.57 104.18-18.57L104.18-18.57L104.18-18.57Q105.00-18.57 105.60-18.37L105.60-18.37L105.60-18.37Q106.19-18.16 106.44-17.92L106.44-17.92L106.44-17.92Q107.09-17.26 107.19-17.26L107.19-17.26L107.19-17.26Q107.30-17.26 107.83-17.63L107.83-17.63L107.83-17.63Q109.43-18.66 111.38-18.66L111.38-18.66L111.38-18.66Q113.32-18.66 114.78-17.67L114.78-17.67L114.78-17.67Q116.24-16.69 116.85-15.09L116.85-15.09L116.85-15.09Q117.96-12.34 117.96-9.27L117.96-9.27L117.96-9.27Q117.96-6.23 116.85-3.20L116.85-3.20L116.85-3.20Q116.24-1.56 115.05-0.51L115.05-0.51L115.05-0.51Q113.86 0.53 112.26 0.53L112.26 0.53L112.26 0.53Q109.10 0.53 109.10-3.12L109.10-3.12L109.10-3.12Q109.10-4.10 109.51-4.10L109.51-4.10L109.51-4.10Q109.59-4.10 109.98-3.92L109.98-3.92L109.98-3.92Q110.37-3.73 110.74-3.73L110.74-3.73L110.74-3.73Q113.65-3.73 113.65-9.90L113.65-9.90L113.65-9.90Q113.65-16.07 110.54-16.07L110.54-16.07L110.54-16.07Q109.68-16.07 109.08-15.68L109.08-15.68L109.08-15.68Q108.49-15.29 108.32-14.92L108.32-14.92L108.16-14.51L108.16-14.51Q107.58-10.82 107.58-0.29L107.58-0.29L107.58-0.29Q107.58 4.47 107.77 6.54L107.77 6.54L107.77 6.54Q107.95 8.61 107.95 9.02L107.95 9.02L107.95 9.02Q107.95 9.43 107.71 9.76L107.71 9.76L107.71 9.76Q106.89 10.82 105.49 11.66L105.49 11.66L105.49 11.66Q104.10 12.51 103.03 12.51L103.03 12.51L103.03 12.51Q102.62 12.51 102.62 11.97L102.62 11.97L102.62 11.97Q103.28 7.83 103.65-6.27ZM123.86-10.41L123.86-10.41L123.90-9.39L123.90-9.39Q123.90-9.14 124.23-9.14L124.23-9.14L124.23-9.14Q125.54-9.27 126.53-9.82L126.53-9.82L126.53-9.82Q127.51-10.37 128.00-11.07L128.00-11.07L128.00-11.07Q128.99-12.59 129.07-13.69L129.07-13.69L129.11-14.19L129.11-14.19Q129.11-16.40 127.35-16.40L127.35-16.40L127.35-16.40Q126.03-16.40 125.21-15.25L125.21-15.25L125.21-15.25Q123.86-13.45 123.86-10.41ZM132.80-4.96L132.80-4.96L132.80-4.96Q132.80-3.40 132.16-2.23L132.16-2.23L132.16-2.23Q131.53-1.07 130.73-0.51L130.73-0.51L130.73-0.51Q129.93 0.04 128.86 0.37L128.86 0.37L128.86 0.37Q127.51 0.78 126.28 0.78L126.28 0.78L126.28 0.78Q122.84 0.78 121.20-1.80L121.20-1.80L121.20-1.80Q119.56-4.39 119.56-8.38L119.56-8.38L119.56-8.38Q119.56-12.38 121.59-15.50L121.59-15.50L121.59-15.50Q123.62-18.61 127.67-18.61L127.67-18.61L127.67-18.61Q131.36-18.61 132.68-16.03L132.68-16.03L132.68-16.03Q133.21-15.05 133.21-14.17L133.21-14.17L133.21-14.17Q133.21-13.28 133.13-12.77L133.13-12.77L133.13-12.77Q133.05-12.26 132.55-11.23L132.55-11.23L132.55-11.23Q132.06-10.21 131.24-9.39L131.24-9.39L131.24-9.39Q130.42-8.57 128.66-7.83L128.66-7.83L128.66-7.83Q126.90-7.09 124.52-6.85L124.52-6.85L124.52-6.85Q124.19-6.85 124.19-6.56L124.19-6.56L124.19-6.56Q124.19-6.19 124.46-5.47L124.46-5.47L124.46-5.47Q124.72-4.76 125.05-4.26L125.05-4.26L125.05-4.26Q125.95-3.12 127.72-3.12L127.72-3.12L127.72-3.12Q129.48-3.12 130.71-4.26L130.71-4.26L130.71-4.26Q131.36-4.88 131.77-5.78L131.77-5.78L131.77-5.78Q131.94-6.11 132.20-6.11L132.20-6.11L132.20-6.11Q132.47-6.11 132.64-5.66L132.64-5.66L132.64-5.66Q132.80-5.21 132.80-4.96ZM134.44-15.99L134.44-15.99L134.56-17.63L134.56-17.63Q134.60-18.00 135.14-18.00L135.14-18.00L136.57-18.00L136.41-21.28L136.41-21.44L136.41-21.44Q136.41-22.39 137.84-23.25L137.84-23.25L137.84-23.25Q139.28-24.11 140.47-24.11L140.47-24.11L140.47-24.11Q140.84-24.11 140.84-23.78L140.84-23.78L140.84-23.74L140.84-23.74Q140.67-22.63 140.51-18.04L140.51-18.04L140.51-18.04Q142.31-18.04 142.80-18.12L142.80-18.12L142.80-18.12Q143.30-18.20 143.34-18.20L143.34-18.20L143.34-18.20Q143.62-18.20 143.62-17.71L143.62-17.71L143.62-17.71Q143.62-17.22 143.17-16.46L143.17-16.46L143.17-16.46Q142.72-15.70 142.19-15.66L142.19-15.66L140.47-15.66L140.47-15.66Q140.43-14.27 140.43-10.97L140.43-10.97L140.43-10.97Q140.43-7.67 140.49-5.54L140.49-5.54L140.49-5.54Q140.55-3.40 140.63-2.32L140.63-2.32L140.63-2.32Q140.71-1.23 140.81-0.57L140.81-0.57L140.81-0.57Q140.92 0.08 140.98 0.37L140.98 0.37L140.98 0.37Q141.04 0.66 141.04 0.74L141.04 0.74L141.04 0.74Q141.04 1.15 140.51 1.19L140.51 1.19L140.51 1.19Q138.91 1.19 137.33 0.74L137.33 0.74L137.33 0.74Q135.75 0.29 135.75-0.82L135.75-0.82L135.75-0.82Q136.61-7.71 136.61-15.62L136.61-15.62L136.61-15.62Q135.51-15.62 134.93-15.54L134.93-15.54L134.89-15.54L134.89-15.54Q134.52-15.54 134.44-15.99ZM148.46-21.94L148.46-21.94L147.48-21.98L147.48-21.98Q146.37-21.98 146.04-21.44L146.04-21.44L146.04-21.44Q145.96-21.32 145.84-21.32L145.84-21.32L145.84-21.32Q145.30-21.32 145.30-23.14L145.30-23.14L145.30-23.14Q145.30-24.97 145.86-25.46L145.86-25.46L145.86-25.46Q146.41-25.95 147.78-25.95L147.78-25.95L147.78-25.95Q149.16-25.95 149.65-25.48L149.65-25.48L149.65-25.48Q150.14-25.01 150.14-23.90L150.14-23.90L150.14-23.90Q150.14-22.80 149.77-22.37L149.77-22.37L149.77-22.37Q149.40-21.94 148.46-21.94ZM145.18-1.23L145.18-1.23L145.63-10.78L145.63-10.78Q145.63-14.19 144.85-15.42L144.85-15.42L144.85-15.42Q144.61-15.83 144.28-16.03L144.28-16.03L144.28-16.03Q144.03-16.11 144.03-16.36L144.03-16.36L144.03-16.36Q144.03-17.10 146.12-17.79L146.12-17.79L146.12-17.79Q148.22-18.49 149.18-18.49L149.18-18.49L149.18-18.49Q150.14-18.49 150.18-18.00L150.18-18.00L150.18-18.00Q150.18-17.18 149.96-13.35L149.96-13.35L149.96-13.35Q149.73-9.51 149.73-5.29L149.73-5.29L149.73-5.29Q149.73-1.07 150.22-0.04L150.22-0.04L150.22-0.04Q150.35 0.16 150.35 0.37L150.35 0.37L150.35 0.37Q150.35 0.90 148.79 0.90L148.79 0.90L148.79 0.90Q147.23 0.90 145.59 0.08L145.59 0.08L145.59 0.08Q145.18-0.12 145.18-1.23ZM152.23-15.99L152.23-15.99L152.36-17.63L152.36-17.63Q152.40-18.00 152.93-18.00L152.93-18.00L154.37-18.00L154.20-21.28L154.20-21.44L154.20-21.44Q154.20-22.39 155.64-23.25L155.64-23.25L155.64-23.25Q157.07-24.11 158.26-24.11L158.26-24.11L158.26-24.11Q158.63-24.11 158.63-23.78L158.63-23.78L158.63-23.74L158.63-23.74Q158.47-22.63 158.30-18.04L158.30-18.04L158.30-18.04Q160.11-18.04 160.60-18.12L160.60-18.12L160.60-18.12Q161.09-18.20 161.13-18.20L161.13-18.20L161.13-18.20Q161.42-18.20 161.42-17.71L161.42-17.71L161.42-17.71Q161.42-17.22 160.97-16.46L160.97-16.46L160.97-16.46Q160.52-15.70 159.98-15.66L159.98-15.66L158.26-15.66L158.26-15.66Q158.22-14.27 158.22-10.97L158.22-10.97L158.22-10.97Q158.22-7.67 158.28-5.54L158.28-5.54L158.28-5.54Q158.34-3.40 158.42-2.32L158.42-2.32L158.42-2.32Q158.51-1.23 158.61-0.57L158.61-0.57L158.61-0.57Q158.71 0.08 158.77 0.37L158.77 0.37L158.77 0.37Q158.83 0.66 158.83 0.74L158.83 0.74L158.83 0.74Q158.83 1.15 158.30 1.19L158.30 1.19L158.30 1.19Q156.70 1.19 155.12 0.74L155.12 0.74L155.12 0.74Q153.55 0.29 153.55-0.82L153.55-0.82L153.55-0.82Q154.41-7.71 154.41-15.62L154.41-15.62L154.41-15.62Q153.30-15.62 152.73-15.54L152.73-15.54L152.68-15.54L152.68-15.54Q152.32-15.54 152.23-15.99Z" fill="url(#editing-shiny-gradient2)"></path></g></g><style>text {
  font-size: 64px;
  font-family: Arial Black;
  dominant-baseline: central;
  text-anchor: middle;
}</style></svg>