<svg width="1118.242578125px" height="122.021240234375px" xmlns="http://www.w3.org/2000/svg" viewBox="-309.12128906249995 13.9893798828125 1118.242578125 122.021240234375" style="background: none;" preserveAspectRatio="xMidYMid"><defs><filter id="editing-marble" x="-100%" y="-100%" width="300%" height="300%"><feFlood flood-color="#a74422" result="flood-1"></feFlood><feComposite operator="in" in="flood-1" in2="SourceAlpha" result="flood-2"></feComposite><feTurbulence baseFrequency="0.07" type="fractalNoise" numOctaves="1" seed="2" result="bs-1"></feTurbulence><feGaussianBlur stdDeviation="1" in="flood-2" result="bs-2"></feGaussianBlur><feDisplacementMap scale="110" in="bs-2" in2="bs-1" result="bs-3"></feDisplacementMap><feComposite operator="in" in="bs-3" in2="SourceAlpha" result="texture"></feComposite><feMerge><feMergeNode in="SourceGraphic"></feMergeNode><feMergeNode in="texture"></feMergeNode></feMerge></filter></defs><g filter="url(#editing-marble)"><g transform="translate(-153.7449927330017, 104.75218772888184)"><path d="M2.69-39.68L2.69-39.68L2.69-39.68Q3.58-41.47 5.54-42.46L5.54-42.46L5.54-42.46Q7.49-43.46 10.18-43.46L10.18-43.46L10.18-43.46Q14.40-43.46 16.93-40.42L16.93-40.42L16.93-40.42Q19.46-37.38 19.46-30.72L19.46-30.72L19.46-7.87L34.11-42.18L41.66-42.18L43.39-9.79L43.20-7.94L58.43-42.18L67.20-42.18L46.72 0L33.09 0L31.81-19.46L23.36 0L7.94 0L6.02-30.72L6.02-30.72Q5.82-34.18 4.90-36.45L4.90-36.45L4.90-36.45Q3.97-38.72 2.69-39.68ZM89.28-10.82L89.28-10.82L89.28-10.82Q90.88-9.73 90.88-7.33L90.88-7.33L90.88-7.33Q90.88-4.93 89.66-3.39L89.66-3.39L89.66-3.39Q88.45-1.86 86.46-0.83L86.46-0.83L86.46-0.83Q82.37 1.28 77.95 1.28L77.95 1.28L77.95 1.28Q73.54 1.28 70.94 0.32L70.94 0.32L70.94 0.32Q68.35-0.64 66.62-2.43L66.62-2.43L66.62-2.43Q63.23-5.82 63.23-12.03L63.23-12.03L63.23-12.03Q63.23-21.70 68.48-27.58L68.48-27.58L68.48-27.58Q74.11-33.92 83.90-33.92L83.90-33.92L83.90-33.92Q89.98-33.92 92.99-31.36L92.99-31.36L92.99-31.36Q95.23-29.44 95.23-26.30L95.23-26.30L95.23-26.30Q95.23-15.04 75.78-15.04L75.78-15.04L75.78-15.04Q75.52-13.38 75.52-11.97L75.52-11.97L75.52-11.97Q75.52-9.02 76.83-7.90L76.83-7.90L76.83-7.90Q78.14-6.78 80.58-6.78L80.58-6.78L80.58-6.78Q83.01-6.78 85.60-7.90L85.60-7.90L85.60-7.90Q88.19-9.02 89.28-10.82ZM76.22-17.79L76.22-17.79L76.22-17.79Q80.77-17.79 83.39-20.61L83.39-20.61L83.39-20.61Q86.02-23.30 86.02-27.58L86.02-27.58L86.02-27.58Q86.02-29.06 85.47-29.86L85.47-29.86L85.47-29.86Q84.93-30.66 83.84-30.66L83.84-30.66L83.84-30.66Q82.75-30.66 81.82-30.24L81.82-30.24L81.82-30.24Q80.90-29.82 79.94-28.42L79.94-28.42L79.94-28.42Q77.57-25.22 76.22-17.79ZM112.70-3.52L112.70-3.52L112.70-3.52Q110.72 1.28 104.38 1.28L104.38 1.28L104.38 1.28Q101.18 1.28 99.14-0.96L99.14-0.96L99.14-0.96Q97.47-2.82 97.47-4.93L97.47-4.93L97.47-4.93Q97.47-9.73 99.71-20.22L99.71-20.22L104.38-44.80L117.38-46.08L111.17-13.70L111.17-13.70Q110.08-8.96 110.08-7.30L110.08-7.30L110.08-7.30Q110.08-3.65 112.70-3.52ZM149.57-26.62L149.57-26.62L149.57-26.62Q149.57-23.94 147.33-22.27L147.33-22.27L147.33-22.27Q145.09-20.61 141.44-20.61L141.44-20.61L141.44-20.61Q139.90-20.61 139.01-21.06L139.01-21.06L139.01-21.06Q139.71-22.72 139.94-24.80L139.94-24.80L139.94-24.80Q140.16-26.88 140.16-27.46L140.16-27.46L140.16-27.46Q140.16-30.14 138.30-30.14L138.30-30.14L138.30-30.14Q137.02-30.14 135.58-28.54L135.58-28.54L135.58-28.54Q134.14-26.94 132.93-24.45L132.93-24.45L132.93-24.45Q130.24-18.69 130.24-12.86L130.24-12.86L130.24-12.86Q130.24-9.66 131.46-8.22L131.46-8.22L131.46-8.22Q132.67-6.78 135.36-6.78L135.36-6.78L135.36-6.78Q139.07-6.78 142.02-9.86L142.02-9.86L142.02-9.86Q142.85-10.82 143.30-11.90L143.30-11.90L143.30-11.90Q145.73-10.62 145.73-7.10L145.73-7.10L145.73-7.10Q145.73-3.52 141.76-1.15L141.76-1.15L141.76-1.15Q137.66 1.28 131.14 1.28L131.14 1.28L131.14 1.28Q118.14 1.28 118.14-12.48L118.14-12.48L118.14-12.48Q118.14-22.53 123.84-28.29L123.84-28.29L123.84-28.29Q129.34-33.92 139.46-33.92L139.46-33.92L139.46-33.92Q149.57-33.92 149.57-26.62ZM165.25 1.28L165.25 1.28L165.25 1.28Q151.17 1.28 151.17-11.97L151.17-11.97L151.17-11.97Q151.17-21.38 156.35-27.46L156.35-27.46L156.35-27.46Q161.86-33.92 171.39-33.92L171.39-33.92L171.39-33.92Q178.30-33.92 181.82-30.72L181.82-30.72L181.82-30.72Q185.34-27.52 185.34-20.80L185.34-20.80L185.34-20.80Q185.34-10.56 179.84-4.61L179.84-4.61L179.84-4.61Q174.46 1.28 165.25 1.28ZM166.91-26.56L166.91-26.56L166.91-26.56Q166.14-24.83 165.54-22.24L165.54-22.24L165.54-22.24Q164.93-19.65 164.16-15.55L164.16-15.55L164.16-15.55Q163.39-11.46 163.39-6.40L163.39-6.40L163.39-6.40Q163.39-4.74 163.94-3.65L163.94-3.65L163.94-3.65Q164.48-2.56 165.95-2.56L165.95-2.56L165.95-2.56Q167.42-2.56 168.35-3.26L168.35-3.26L168.35-3.26Q169.28-3.97 169.98-5.63L169.98-5.63L169.98-5.63Q171.26-8.58 172.29-14.05L172.29-14.05L172.29-14.05Q173.31-19.52 173.41-21.89L173.41-21.89L173.41-21.89Q173.50-24.26 173.50-26.02L173.50-26.02L173.50-26.02Q173.50-27.78 172.99-28.93L172.99-28.93L172.99-28.93Q172.48-30.08 171.04-30.08L171.04-30.08L171.04-30.08Q169.60-30.08 168.64-29.18L168.64-29.18L168.64-29.18Q167.68-28.29 166.91-26.56ZM235.20 1.28L235.20 1.28L235.20 1.28Q227.46 1.28 227.46-4.74L227.46-4.74L227.46-4.74Q227.46-7.36 228.58-12.45L228.58-12.45L228.58-12.45Q229.70-17.54 230.08-19.58L230.08-19.58L230.08-19.58Q230.98-24.26 230.98-25.73L230.98-25.73L230.98-25.73Q230.98-28.99 228.54-28.99L228.54-28.99L228.54-28.99Q226.94-28.99 225.41-26.78L225.41-26.78L225.41-26.78Q223.87-24.58 223.17-20.16L223.17-20.16L219.20 0L206.72 1.28L210.18-16.13L210.18-16.13Q210.75-19.01 211.26-22.27L211.26-22.27L211.26-22.27Q211.78-25.54 211.78-26.05L211.78-26.05L211.78-26.05Q211.78-28.99 209.60-28.99L209.60-28.99L209.60-28.99Q208.13-28.99 206.53-26.82L206.53-26.82L206.53-26.82Q204.93-24.64 204.03-20.16L204.03-20.16L200.13 0L187.52 1.28L194.24-32.64L204.67-33.92L203.58-27.46L203.58-27.46Q205.25-30.91 208.32-32.42L208.32-32.42L208.32-32.42Q211.39-33.92 216.19-33.92L216.19-33.92L216.19-33.92Q218.94-33.92 220.74-32.58L220.74-32.58L220.74-32.58Q222.53-31.23 223.10-29.06L223.10-29.06L223.10-29.06Q224.19-31.30 226.98-32.61L226.98-32.61L226.98-32.61Q229.76-33.92 233.18-33.92L233.18-33.92L233.18-33.92Q236.61-33.92 238.30-33.18L238.30-33.18L238.30-33.18Q240-32.45 241.02-31.23L241.02-31.23L241.02-31.23Q242.75-28.99 242.75-24.90L242.75-24.90L242.75-24.90Q242.75-20.86 241.02-12.48L241.02-12.48L241.02-12.48Q240.13-8.38 240.13-6.88L240.13-6.88L240.13-6.88Q240.13-5.38 240.99-4.48L240.99-4.48L240.99-4.48Q241.86-3.58 243.14-3.46L243.14-3.46L243.14-3.46Q242.50-1.28 240.29 0L240.29 0L240.29 0Q238.08 1.28 235.20 1.28ZM273.98-10.82L273.98-10.82L273.98-10.82Q275.58-9.73 275.58-7.33L275.58-7.33L275.58-7.33Q275.58-4.93 274.37-3.39L274.37-3.39L274.37-3.39Q273.15-1.86 271.17-0.83L271.17-0.83L271.17-0.83Q267.07 1.28 262.66 1.28L262.66 1.28L262.66 1.28Q258.24 1.28 255.65 0.32L255.65 0.32L255.65 0.32Q253.06-0.64 251.33-2.43L251.33-2.43L251.33-2.43Q247.94-5.82 247.94-12.03L247.94-12.03L247.94-12.03Q247.94-21.70 253.18-27.58L253.18-27.58L253.18-27.58Q258.82-33.92 268.61-33.92L268.61-33.92L268.61-33.92Q274.69-33.92 277.70-31.36L277.70-31.36L277.70-31.36Q279.94-29.44 279.94-26.30L279.94-26.30L279.94-26.30Q279.94-15.04 260.48-15.04L260.48-15.04L260.48-15.04Q260.22-13.38 260.22-11.97L260.22-11.97L260.22-11.97Q260.22-9.02 261.54-7.90L261.54-7.90L261.54-7.90Q262.85-6.78 265.28-6.78L265.28-6.78L265.28-6.78Q267.71-6.78 270.30-7.90L270.30-7.90L270.30-7.90Q272.90-9.02 273.98-10.82ZM260.93-17.79L260.93-17.79L260.93-17.79Q265.47-17.79 268.10-20.61L268.10-20.61L268.10-20.61Q270.72-23.30 270.72-27.58L270.72-27.58L270.72-27.58Q270.72-29.06 270.18-29.86L270.18-29.86L270.18-29.86Q269.63-30.66 268.54-30.66L268.54-30.66L268.54-30.66Q267.46-30.66 266.53-30.24L266.53-30.24L266.53-30.24Q265.60-29.82 264.64-28.42L264.64-28.42L264.64-28.42Q262.27-25.22 260.93-17.79ZM300.42-31.17L300.42-31.17L300.42-31.17Q298.24-32.83 298.24-36.38L298.24-36.38L298.24-36.38Q298.24-39.94 300.58-41.79L300.58-41.79L300.58-41.79Q302.91-43.65 306.94-43.65L306.94-43.65L306.94-43.65Q309.50-43.65 315.58-42.75L315.58-42.75L319.94-42.11L319.94-42.11Q322.11-41.86 324.38-41.86L324.38-41.86L324.38-41.86Q326.66-41.86 328.19-42.82L328.19-42.82L328.19-42.82Q330.50-40.77 330.50-37.82L330.50-37.82L330.50-37.82Q330.50-34.88 327.87-32.77L327.87-32.77L327.87-32.77Q325.18-30.53 321.73-30.53L321.73-30.53L321.73-30.53Q320.06-30.53 317.38-30.98L317.38-30.98L317.38-30.98Q314.24-21.12 314.24-14.27L314.24-14.27L314.24-14.27Q314.24-7.42 317.70-3.84L317.70-3.84L317.70-3.84Q316.10-0.96 313.73 0.16L313.73 0.16L313.73 0.16Q311.36 1.28 307.81 1.28L307.81 1.28L307.81 1.28Q304.26 1.28 302.05-0.67L302.05-0.67L302.05-0.67Q299.84-2.62 299.84-6.66L299.84-6.66L299.84-6.66Q299.84-11.33 302.40-19.01L302.40-19.01L302.40-19.01Q304.96-26.62 308.80-32.45L308.80-32.45L308.80-32.45Q306.94-32.64 305.02-32.64L305.02-32.64L305.02-32.64Q301.06-32.64 300.42-31.17ZM339.46 1.28L339.46 1.28L339.46 1.28Q325.38 1.28 325.38-11.97L325.38-11.97L325.38-11.97Q325.38-21.38 330.56-27.46L330.56-27.46L330.56-27.46Q336.06-33.92 345.60-33.92L345.60-33.92L345.60-33.92Q352.51-33.92 356.03-30.72L356.03-30.72L356.03-30.72Q359.55-27.52 359.55-20.80L359.55-20.80L359.55-20.80Q359.55-10.56 354.05-4.61L354.05-4.61L354.05-4.61Q348.67 1.28 339.46 1.28ZM341.12-26.56L341.12-26.56L341.12-26.56Q340.35-24.83 339.74-22.24L339.74-22.24L339.74-22.24Q339.14-19.65 338.37-15.55L338.37-15.55L338.37-15.55Q337.60-11.46 337.60-6.40L337.60-6.40L337.60-6.40Q337.60-4.74 338.14-3.65L338.14-3.65L338.14-3.65Q338.69-2.56 340.16-2.56L340.16-2.56L340.16-2.56Q341.63-2.56 342.56-3.26L342.56-3.26L342.56-3.26Q343.49-3.97 344.19-5.63L344.19-5.63L344.19-5.63Q345.47-8.58 346.50-14.05L346.50-14.05L346.50-14.05Q347.52-19.52 347.62-21.89L347.62-21.89L347.62-21.89Q347.71-24.26 347.71-26.02L347.71-26.02L347.71-26.02Q347.71-27.78 347.20-28.93L347.20-28.93L347.20-28.93Q346.69-30.08 345.25-30.08L345.25-30.08L345.25-30.08Q343.81-30.08 342.85-29.18L342.85-29.18L342.85-29.18Q341.89-28.29 341.12-26.56ZM409.92-13.25L409.92-13.25L409.92-13.25Q411.58-12.03 411.58-9.44L411.58-9.44L411.58-9.44Q411.58-6.85 410.46-5.02L410.46-5.02L410.46-5.02Q409.34-3.20 407.17-1.79L407.17-1.79L407.17-1.79Q402.50 1.22 394.34 1.22L394.34 1.22L394.34 1.22Q386.18 1.22 381.73-3.04L381.73-3.04L381.73-3.04Q377.28-7.30 377.28-14.85L377.28-14.85L377.28-14.85Q377.28-25.54 382.85-33.66L382.85-33.66L382.85-33.66Q387.07-39.68 394.62-42.24L394.62-42.24L394.62-42.24Q398.53-43.52 402.37-43.52L402.37-43.52L402.37-43.52Q406.21-43.52 408.58-43.01L408.58-43.01L408.58-43.01Q410.94-42.50 412.74-41.47L412.74-41.47L412.74-41.47Q416.64-39.23 416.64-35.65L416.64-35.65L416.64-35.65Q416.64-32.38 413.57-29.95L413.57-29.95L413.57-29.95Q410.75-27.78 408.45-27.78L408.45-27.78L408.45-27.78Q406.14-27.78 405.18-28.10L405.18-28.10L405.18-28.10Q405.44-30.40 405.44-31.90L405.44-31.90L405.44-31.90Q405.44-33.41 405.38-34.50L405.38-34.50L405.38-34.50Q405.31-35.58 404.99-36.61L404.99-36.61L404.99-36.61Q404.35-38.98 402.40-38.98L402.40-38.98L402.40-38.98Q400.45-38.98 398.50-37.15L398.50-37.15L398.50-37.15Q396.54-35.33 394.88-32.26L394.88-32.26L394.88-32.26Q391.10-25.28 391.10-17.02L391.10-17.02L391.10-17.02Q391.10-13.06 393.34-10.78L393.34-10.78L393.34-10.78Q395.58-8.51 400.38-8.51L400.38-8.51L400.38-8.51Q403.97-8.51 407.36-10.88L407.36-10.88L407.36-10.88Q408.83-11.90 409.92-13.25ZM436.93-17.98L436.93-17.98L436.93-17.98Q439.23-22.08 439.23-26.24L439.23-26.24L439.23-26.24Q439.23-28.99 437.25-28.99L437.25-28.99L437.25-28.99Q435.71-28.99 434.11-26.37L434.11-26.37L434.11-26.37Q432.45-23.74 431.94-20.35L431.94-20.35L428.61 0L415.36 1.28L421.89-32.64L432.45-33.92L431.30-27.46L431.30-27.46Q434.43-33.92 441.47-33.92L441.47-33.92L441.47-33.92Q445.18-33.92 447.20-32L447.20-32L447.20-32Q449.22-30.08 449.22-26.14L449.22-26.14L449.22-26.14Q449.22-22.21 446.62-19.71L446.62-19.71L446.62-19.71Q444.03-17.22 439.62-17.22L439.62-17.22L439.62-17.22Q437.70-17.22 436.93-17.98ZM453.02-1.92L453.02-1.92L453.02-1.92Q451.52-3.58 450.85-6.21L450.85-6.21L450.85-6.21Q450.18-8.83 450.18-13.12L450.18-13.12L450.18-13.12Q450.18-17.41 451.65-21.31L451.65-21.31L451.65-21.31Q453.12-25.22 455.81-28.03L455.81-28.03L455.81-28.03Q461.31-33.92 470.40-33.92L470.40-33.92L470.40-33.92Q473.66-33.92 476.03-32.83L476.03-32.83L486.98-33.92L482.24-8.96L482.24-8.96Q482.05-8.19 482.05-6.78L482.05-6.78L482.05-6.78Q482.05-5.38 482.91-4.48L482.91-4.48L482.91-4.48Q483.78-3.58 485.06-3.46L485.06-3.46L485.06-3.46Q484.42-1.28 482.08 0L482.08 0L482.08 0Q479.74 1.28 477.12 1.28L477.12 1.28L477.12 1.28Q474.50 1.28 472.74 0.29L472.74 0.29L472.74 0.29Q470.98-0.70 470.46-2.37L470.46-2.37L470.46-2.37Q469.44-0.77 467.26 0.26L467.26 0.26L467.26 0.26Q465.09 1.28 462.18 1.28L462.18 1.28L462.18 1.28Q459.26 1.28 456.90 0.51L456.90 0.51L456.90 0.51Q454.53-0.26 453.02-1.92ZM466.53-27.90L466.53-27.90L466.53-27.90Q465.79-26.75 465.15-24.80L465.15-24.80L465.15-24.80Q464.51-22.85 463.46-17.63L463.46-17.63L463.46-17.63Q462.40-12.42 462.40-8.70L462.40-8.70L462.40-8.70Q462.40-4.99 462.98-3.90L462.98-3.90L462.98-3.90Q463.55-2.82 464.58-2.82L464.58-2.82L464.58-2.82Q466.62-2.82 468.13-4.77L468.13-4.77L468.13-4.77Q469.63-6.72 470.21-10.18L470.21-10.18L473.60-28.93L473.60-28.93Q472.26-30.08 470.69-30.08L470.69-30.08L470.69-30.08Q469.12-30.08 468.19-29.57L468.19-29.57L468.19-29.57Q467.26-29.06 466.53-27.90ZM513.66-31.55L513.66-31.55L513.66-31.55Q515.78-33.92 519.42-33.92L519.42-33.92L519.42-33.92Q521.66-33.92 523.39-32.70L523.39-32.70L523.39-32.70Q525.12-31.49 525.12-29.22L525.12-29.22L525.12-29.22Q525.12-26.94 524.42-24.51L524.42-24.51L524.42-24.51Q523.71-22.08 522.62-19.58L522.62-19.58L522.62-19.58Q520.45-14.72 517.44-10.69L517.44-10.69L517.44-10.69Q513.22-4.86 509.15-1.79L509.15-1.79L509.15-1.79Q505.09 1.28 500.67 1.28L500.67 1.28L500.67 1.28Q497.09 1.28 494.91 0.45L494.91 0.45L494.91 0.45Q494.53-12.99 494.05-17.79L494.05-17.79L494.05-17.79Q493.57-22.59 493.18-25.22L493.18-25.22L493.18-25.22Q492.54-30.34 490.62-31.55L490.62-31.55L490.62-31.55Q492.10-32.83 493.54-33.38L493.54-33.38L493.54-33.38Q494.98-33.92 497.95-33.92L497.95-33.92L497.95-33.92Q500.93-33.92 503.04-31.58L503.04-31.58L503.04-31.58Q505.15-29.25 505.57-25.12L505.57-25.12L505.57-25.12Q505.98-20.99 505.98-16L505.98-16L505.98-16Q505.98-11.01 505.60-4.99L505.60-4.99L505.60-4.99Q507.58-6.40 509.70-10.69L509.70-10.69L509.70-10.69Q512.58-16.64 513.60-23.81L513.60-23.81L513.60-23.81Q513.92-25.98 513.92-28.29L513.92-28.29L513.92-28.29Q513.92-30.59 513.66-31.55ZM542.21-3.52L542.21-3.52L542.21-3.52Q540.22 1.28 533.89 1.28L533.89 1.28L533.89 1.28Q530.62 1.28 528.58-0.96L528.58-0.96L528.58-0.96Q526.85-2.94 526.85-4.93L526.85-4.93L526.85-4.93Q526.85-10.11 529.22-20.22L529.22-20.22L531.58-32.64L544.58-33.92L540.67-13.70L540.67-13.70Q539.58-8.96 539.58-7.30L539.58-7.30L539.58-7.30Q539.58-3.65 542.21-3.52ZM532.74-41.54L532.74-41.54L532.74-41.54Q532.74-44.03 534.82-45.38L534.82-45.38L534.82-45.38Q536.90-46.72 539.90-46.72L539.90-46.72L539.90-46.72Q542.91-46.72 544.74-45.38L544.74-45.38L544.74-45.38Q546.56-44.03 546.56-41.54L546.56-41.54L546.56-41.54Q546.56-39.04 544.54-37.76L544.54-37.76L544.54-37.76Q542.53-36.48 539.52-36.48L539.52-36.48L539.52-36.48Q536.51-36.48 534.62-37.76L534.62-37.76L534.62-37.76Q532.74-39.04 532.74-41.54ZM574.72 1.28L574.72 1.28L574.72 1.28Q566.98 1.28 566.98-4.74L566.98-4.74L566.98-4.74Q567.04-6.40 567.55-9.22L567.55-9.22L568.70-15.10L568.70-15.10Q570.43-23.42 570.43-25.28L570.43-25.28L570.43-25.28Q570.43-28.99 568.26-28.99L568.26-28.99L568.26-28.99Q564.61-28.99 562.69-19.46L562.69-19.46L558.91 0L546.05 1.28L552.70-32.70L563.20-33.92L562.18-27.65L562.18-27.65Q565.18-33.92 574.40-33.92L574.40-33.92L574.40-33.92Q578.88-33.92 580.77-32.03L580.77-32.03L580.77-32.03Q582.66-30.14 582.66-25.92L582.66-25.92L582.66-25.92Q582.66-21.95 580.61-12.67L580.61-12.67L580.61-12.67Q579.65-8.51 579.65-6.94L579.65-6.94L579.65-6.94Q579.65-5.38 580.51-4.48L580.51-4.48L580.51-4.48Q581.38-3.58 582.66-3.46L582.66-3.46L582.66-3.46Q582.02-1.28 579.81 0L579.81 0L579.81 0Q577.60 1.28 574.72 1.28ZM592.32-26.75L592.32-26.75L592.32-26.75Q594.50-29.82 597.79-31.87L597.79-31.87L597.79-31.87Q601.09-33.92 605.12-33.92L605.12-33.92L605.12-33.92Q609.15-33.92 611.07-32.64L611.07-32.64L623.62-33.92L619.26-9.34L619.26-9.34Q617.02 3.20 612.29 8.13L612.29 8.13L612.29 8.13Q607.74 12.80 598.91 12.80L598.91 12.80L598.91 12.80Q592.19 12.80 588.35 10.69L588.35 10.69L588.35 10.69Q584.51 8.58 584.51 5.06L584.51 5.06L584.51 5.06Q584.51 2.43 586.50 0.93L586.50 0.93L586.50 0.93Q588.48-0.58 591.55-0.58L591.55-0.58L591.55-0.58Q594.24-0.58 596.29 0.64L596.29 0.64L596.29 0.64Q597.50 1.28 598.08 2.18L598.08 2.18L598.08 2.18Q596.61 3.46 596.61 5.57L596.61 5.57L596.61 5.57Q596.61 8.32 599.17 8.32L599.17 8.32L599.17 8.32Q603.46 8.32 605.89-1.79L605.89-1.79L605.89-1.79Q606.59-4.54 607.17-7.30L607.17-7.30L607.17-7.30Q604.29-3.78 597.76-3.78L597.76-3.78L597.76-3.78Q593.22-3.78 590.59-5.95L590.59-5.95L590.59-5.95Q587.97-8.13 587.97-13.25L587.97-13.25L587.97-13.25Q587.97-16.45 589.06-20.06L589.06-20.06L589.06-20.06Q590.14-23.68 592.32-26.75ZM600.64-13.06L600.64-13.06L600.64-13.06Q600.64-8.70 602.88-8.70L602.88-8.70L602.88-8.70Q604.42-8.70 605.89-10.37L605.89-10.37L605.89-10.37Q607.04-11.71 607.49-13.70L607.49-13.70L610.75-30.14L610.75-30.14Q610.43-30.21 610.11-30.34L610.11-30.34L610.11-30.34Q609.47-30.59 608.64-30.59L608.64-30.59L608.64-30.59Q604.74-30.59 602.43-24.19L602.43-24.19L602.43-24.19Q600.64-19.20 600.64-13.06ZM645.25-22.46L645.25-22.46L645.25-22.46Q646.14-24.83 646.14-26.88L646.14-26.88L646.14-26.88Q646.14-30.66 643.07-30.66L643.07-30.66L643.07-30.66Q641.47-30.66 640.16-29.22L640.16-29.22L640.16-29.22Q638.85-27.78 638.85-25.98L638.85-25.98L638.85-25.98Q638.85-24.70 639.87-23.68L639.87-23.68L639.87-23.68Q641.34-22.27 645.12-19.97L645.12-19.97L645.12-19.97Q648.90-17.66 650.34-15.78L650.34-15.78L650.34-15.78Q651.78-13.89 651.78-11.30L651.78-11.30L651.78-11.30Q651.78-8.70 650.53-6.34L650.53-6.34L650.53-6.34Q649.28-3.97 647.04-2.30L647.04-2.30L647.04-2.30Q642.24 1.28 634.56 1.28L634.56 1.28L634.56 1.28Q630.40 1.28 627.20-0.90L627.20-0.90L627.20-0.90Q624.00-3.01 624.00-5.50L624.00-5.50L624.00-5.50Q624.00-8 625.82-9.47L625.82-9.47L625.82-9.47Q627.65-10.94 630.34-10.94L630.34-10.94L630.34-10.94Q633.02-10.94 634.69-9.92L634.69-9.92L634.69-9.92Q633.86-7.81 633.86-6.40L633.86-6.40L633.86-6.40Q633.86-2.18 637.44-2.18L637.44-2.18L637.44-2.18Q638.98-2.18 640.00-3.14L640.00-3.14L640.00-3.14Q641.02-4.10 641.02-5.76L641.02-5.76L641.02-5.76Q641.02-9.02 635.52-12.48L635.52-12.48L635.52-12.48Q631.04-15.42 630.02-16.58L630.02-16.58L630.02-16.58Q628.29-18.62 628.29-21.18L628.29-21.18L628.29-21.18Q628.29-23.74 629.50-26.18L629.50-26.18L629.50-26.18Q630.72-28.61 632.96-30.34L632.96-30.34L632.96-30.34Q637.63-33.92 645.76-33.92L645.76-33.92L645.76-33.92Q649.92-33.92 652.38-32.26L652.38-32.26L652.38-32.26Q654.85-30.59 654.85-27.78L654.85-27.78L654.85-27.78Q654.85-24.96 653.15-23.36L653.15-23.36L653.15-23.36Q651.46-21.76 648.38-21.76L648.38-21.76L648.38-21.76Q646.27-21.76 645.25-22.46ZM711.94-26.56L711.94-26.56L711.94-26.56Q711.94 0.70 682.37 0.70L682.37 0.70L682.37 0.70Q677.63 0.70 669.82-0.45L669.82-0.45L676.99-38.27L676.99-38.27Q677.50-40.83 677.82-42.30L677.82-42.30L677.82-42.30Q687.55-43.01 691.87-43.01L691.87-43.01L691.87-43.01Q696.19-43.01 700.16-42.11L700.16-42.11L700.16-42.11Q704.13-41.22 706.75-39.23L706.75-39.23L706.75-39.23Q711.94-35.33 711.94-26.56ZM698.75-28.93L698.75-28.93L698.75-28.93Q698.75-38.46 691.90-38.46L691.90-38.46L691.26-38.46L691.26-38.46Q690.94-38.46 690.62-38.40L690.62-38.40L684.03-4.03L684.03-4.03Q684.29-3.90 684.54-3.90L684.54-3.90L685.06-3.90L685.06-3.90Q687.42-3.90 689.89-5.38L689.89-5.38L689.89-5.38Q692.35-6.85 694.27-9.86L694.27-9.86L694.27-9.86Q698.75-16.83 698.75-28.93ZM735.23-17.98L735.23-17.98L735.23-17.98Q737.54-22.08 737.54-26.24L737.54-26.24L737.54-26.24Q737.54-28.99 735.55-28.99L735.55-28.99L735.55-28.99Q734.02-28.99 732.42-26.37L732.42-26.37L732.42-26.37Q730.75-23.74 730.24-20.35L730.24-20.35L726.91 0L713.66 1.28L720.19-32.64L730.75-33.92L729.60-27.46L729.60-27.46Q732.74-33.92 739.78-33.92L739.78-33.92L739.78-33.92Q743.49-33.92 745.50-32L745.50-32L745.50-32Q747.52-30.08 747.52-26.14L747.52-26.14L747.52-26.14Q747.52-22.21 744.93-19.71L744.93-19.71L744.93-19.71Q742.34-17.22 737.92-17.22L737.92-17.22L737.92-17.22Q736.00-17.22 735.23-17.98ZM763.90-3.52L763.90-3.52L763.90-3.52Q761.92 1.28 755.58 1.28L755.58 1.28L755.58 1.28Q752.32 1.28 750.27-0.96L750.27-0.96L750.27-0.96Q748.54-2.94 748.54-4.93L748.54-4.93L748.54-4.93Q748.54-10.11 750.91-20.22L750.91-20.22L753.28-32.64L766.27-33.92L762.37-13.70L762.37-13.70Q761.28-8.96 761.28-7.30L761.28-7.30L761.28-7.30Q761.28-3.65 763.90-3.52ZM754.43-41.54L754.43-41.54L754.43-41.54Q754.43-44.03 756.51-45.38L756.51-45.38L756.51-45.38Q758.59-46.72 761.60-46.72L761.60-46.72L761.60-46.72Q764.61-46.72 766.43-45.38L766.43-45.38L766.43-45.38Q768.26-44.03 768.26-41.54L768.26-41.54L768.26-41.54Q768.26-39.04 766.24-37.76L766.24-37.76L766.24-37.76Q764.22-36.48 761.22-36.48L761.22-36.48L761.22-36.48Q758.21-36.48 756.32-37.76L756.32-37.76L756.32-37.76Q754.43-39.04 754.43-41.54ZM799.17-4.38L799.17-4.38L799.17-4.38Q796.48-1.66 792.80-0.19L792.80-0.19L792.80-0.19Q789.12 1.28 785.47 1.28L785.47 1.28L785.47 1.28Q781.82 1.28 780.54 0.64L780.54 0.64L778.56 11.52L765.57 12.80L774.40-32.64L784.83-33.73L784.00-29.31L784.00-29.31Q786.69-33.86 792.26-33.86L792.26-33.86L792.26-33.86Q798.53-33.86 801.86-29.82L801.86-29.82L801.86-29.82Q804.80-26.18 804.80-20.61L804.80-20.61L804.80-20.61Q804.80-15.04 803.33-11.07L803.33-11.07L803.33-11.07Q801.86-7.10 799.17-4.38ZM784.70-22.34L781.31-3.58L781.31-3.58Q782.66-2.43 784.32-2.43L784.32-2.43L784.32-2.43Q785.98-2.43 786.94-3.07L786.94-3.07L786.94-3.07Q787.90-3.71 788.61-4.99L788.61-4.99L788.61-4.99Q790.53-8.45 792.06-18.94L792.06-18.94L792.06-18.94Q792.51-22.02 792.51-25.02L792.51-25.02L792.51-25.02Q792.51-28.03 791.84-28.99L791.84-28.99L791.84-28.99Q791.17-29.95 789.89-29.95L789.89-29.95L789.89-29.95Q785.98-29.95 784.70-22.34L784.70-22.34Z" fill="#782f19"></path></g></g><style>text {
  font-size: 64px;
  font-family: Arial Black;
  dominant-baseline: central;
  text-anchor: middle;
}</style></svg>